<mxfile host="app.diagrams.net" agent="Mozilla/5.0 (Windows NT 10.0; Win64; x64; rv:135.0) Gecko/20100101 Firefox/135.0" version="26.0.16" pages="2">
  <diagram name="1 oldal" id="ncHN7r2Ex_CpQPOmjnOV">
    <mxGraphModel grid="1" page="1" gridSize="10" guides="1" tooltips="1" connect="1" arrows="1" fold="1" pageScale="1" pageWidth="827" pageHeight="1169" math="0" shadow="0">
      <root>
        <mxCell id="0" />
        <mxCell id="1" parent="0" />
        <mxCell id="xCzEfHTypVGqlruPkhLB-37" value="" style="ellipse;html=1;shape=startState;fillColor=#000000;strokeColor=#ff0000;" vertex="1" parent="1">
          <mxGeometry x="225" y="105" width="30" height="30" as="geometry" />
        </mxCell>
        <mxCell id="xCzEfHTypVGqlruPkhLB-38" value="" style="edgeStyle=orthogonalEdgeStyle;html=1;verticalAlign=bottom;endArrow=open;endSize=8;strokeColor=#ff0000;rounded=0;" edge="1" parent="1" source="xCzEfHTypVGqlruPkhLB-50">
          <mxGeometry relative="1" as="geometry">
            <mxPoint x="620" y="120" as="targetPoint" />
          </mxGeometry>
        </mxCell>
        <mxCell id="xCzEfHTypVGqlruPkhLB-39" value="" style="endArrow=open;html=1;rounded=0;strokeColor=#FF0000;exitX=0.5;exitY=0;exitDx=0;exitDy=0;edgeStyle=orthogonalEdgeStyle;entryX=0.5;entryY=0;entryDx=0;entryDy=0;endFill=0;" edge="1" parent="1" source="xCzEfHTypVGqlruPkhLB-56" target="xCzEfHTypVGqlruPkhLB-50">
          <mxGeometry width="50" height="50" relative="1" as="geometry">
            <mxPoint x="652.79" y="84.64466094067257" as="sourcePoint" />
            <mxPoint x="560" y="30" as="targetPoint" />
          </mxGeometry>
        </mxCell>
        <mxCell id="xCzEfHTypVGqlruPkhLB-40" value="" style="endArrow=open;html=1;rounded=0;strokeColor=#FF0000;exitX=0;exitY=1;exitDx=0;exitDy=0;endFill=0;" edge="1" parent="1">
          <mxGeometry width="50" height="50" relative="1" as="geometry">
            <mxPoint x="652.79" y="155.35533905932743" as="sourcePoint" />
            <mxPoint x="653" y="240" as="targetPoint" />
          </mxGeometry>
        </mxCell>
        <mxCell id="xCzEfHTypVGqlruPkhLB-41" value="&lt;div&gt;WaitForInput&lt;/div&gt;" style="rounded=1;whiteSpace=wrap;html=1;arcSize=40;fontColor=#000000;fillColor=#ffffc0;strokeColor=#ff0000;" vertex="1" parent="1">
          <mxGeometry x="592.79" y="480" width="120" height="40" as="geometry" />
        </mxCell>
        <mxCell id="xCzEfHTypVGqlruPkhLB-42" value="[e is not owner]" style="text;html=1;align=center;verticalAlign=middle;whiteSpace=wrap;rounded=0;" vertex="1" parent="1">
          <mxGeometry x="470" y="40" width="90" height="30" as="geometry" />
        </mxCell>
        <mxCell id="xCzEfHTypVGqlruPkhLB-43" value="[e is owner]" style="text;html=1;align=center;verticalAlign=middle;resizable=0;points=[];autosize=1;strokeColor=none;fillColor=none;" vertex="1" parent="1">
          <mxGeometry x="660" y="170" width="80" height="30" as="geometry" />
        </mxCell>
        <mxCell id="xCzEfHTypVGqlruPkhLB-44" value="ejectSpores" style="text;html=1;align=center;verticalAlign=middle;resizable=0;points=[];autosize=1;strokeColor=none;fillColor=none;" vertex="1" parent="1">
          <mxGeometry x="655" y="540" width="90" height="30" as="geometry" />
        </mxCell>
        <mxCell id="xCzEfHTypVGqlruPkhLB-45" value="" style="endArrow=open;html=1;rounded=0;strokeColor=#FF0000;endFill=0;exitX=0.5;exitY=1;exitDx=0;exitDy=0;" edge="1" parent="1" source="xCzEfHTypVGqlruPkhLB-55" target="xCzEfHTypVGqlruPkhLB-41">
          <mxGeometry width="50" height="50" relative="1" as="geometry">
            <mxPoint x="420" y="650" as="sourcePoint" />
            <mxPoint x="340" y="765" as="targetPoint" />
          </mxGeometry>
        </mxCell>
        <mxCell id="xCzEfHTypVGqlruPkhLB-46" value="&lt;div&gt;Eject&lt;/div&gt;" style="rounded=1;whiteSpace=wrap;html=1;arcSize=40;fontColor=#000000;fillColor=#ffffc0;strokeColor=#ff0000;" vertex="1" parent="1">
          <mxGeometry x="592.79" y="590" width="120" height="40" as="geometry" />
        </mxCell>
        <mxCell id="xCzEfHTypVGqlruPkhLB-47" value="" style="edgeStyle=orthogonalEdgeStyle;html=1;verticalAlign=bottom;endArrow=none;endSize=8;strokeColor=#ff0000;rounded=0;elbow=vertical;startFill=0;" edge="1" parent="1" source="xCzEfHTypVGqlruPkhLB-65">
          <mxGeometry relative="1" as="geometry">
            <mxPoint x="400" y="240" as="targetPoint" />
            <Array as="points">
              <mxPoint x="170" y="500" />
              <mxPoint x="170" y="240" />
              <mxPoint x="370" y="240" />
            </Array>
          </mxGeometry>
        </mxCell>
        <mxCell id="xCzEfHTypVGqlruPkhLB-48" value="onTurnBegin(e : Player)" style="text;html=1;align=center;verticalAlign=middle;resizable=0;points=[];autosize=1;strokeColor=none;fillColor=none;" vertex="1" parent="1">
          <mxGeometry x="460" y="120" width="150" height="30" as="geometry" />
        </mxCell>
        <mxCell id="xCzEfHTypVGqlruPkhLB-49" value="" style="edgeStyle=orthogonalEdgeStyle;html=1;verticalAlign=bottom;endArrow=open;endSize=8;strokeColor=#ff0000;rounded=0;" edge="1" parent="1" source="xCzEfHTypVGqlruPkhLB-37" target="xCzEfHTypVGqlruPkhLB-50">
          <mxGeometry relative="1" as="geometry">
            <mxPoint x="410" y="115" as="targetPoint" />
            <mxPoint x="300" y="115" as="sourcePoint" />
          </mxGeometry>
        </mxCell>
        <mxCell id="xCzEfHTypVGqlruPkhLB-50" value="&lt;div&gt;WaitingForTurn&lt;/div&gt;" style="rounded=1;whiteSpace=wrap;html=1;arcSize=40;fontColor=#000000;fillColor=#ffffc0;strokeColor=#ff0000;" vertex="1" parent="1">
          <mxGeometry x="340" y="100" width="120" height="40" as="geometry" />
        </mxCell>
        <mxCell id="xCzEfHTypVGqlruPkhLB-51" value="[alive]" style="text;html=1;align=center;verticalAlign=middle;resizable=0;points=[];autosize=1;strokeColor=none;fillColor=none;" vertex="1" parent="1">
          <mxGeometry x="662.79" y="430" width="50" height="30" as="geometry" />
        </mxCell>
        <mxCell id="xCzEfHTypVGqlruPkhLB-52" value="&lt;div&gt;WaitForStatus&lt;/div&gt;" style="rounded=1;whiteSpace=wrap;html=1;arcSize=40;fontColor=#000000;fillColor=#ffffc0;strokeColor=#ff0000;" vertex="1" parent="1">
          <mxGeometry x="592.79" y="240" width="120" height="40" as="geometry" />
        </mxCell>
        <mxCell id="xCzEfHTypVGqlruPkhLB-53" value="" style="edgeStyle=orthogonalEdgeStyle;html=1;verticalAlign=bottom;endArrow=open;endSize=8;strokeColor=#ff0000;rounded=0;exitX=0.5;exitY=1;exitDx=0;exitDy=0;" edge="1" parent="1" source="xCzEfHTypVGqlruPkhLB-52" target="xCzEfHTypVGqlruPkhLB-55">
          <mxGeometry relative="1" as="geometry">
            <mxPoint x="500" y="585" as="targetPoint" />
            <mxPoint x="560" y="650" as="sourcePoint" />
          </mxGeometry>
        </mxCell>
        <mxCell id="xCzEfHTypVGqlruPkhLB-54" value="" style="endArrow=open;html=1;rounded=0;strokeColor=#FF0000;exitX=0.5;exitY=1;exitDx=0;exitDy=0;endFill=0;" edge="1" parent="1" source="xCzEfHTypVGqlruPkhLB-41">
          <mxGeometry width="50" height="50" relative="1" as="geometry">
            <mxPoint x="409.64466094067257" y="595" as="sourcePoint" />
            <mxPoint x="653" y="590" as="targetPoint" />
          </mxGeometry>
        </mxCell>
        <mxCell id="xCzEfHTypVGqlruPkhLB-55" value="" style="rhombus;whiteSpace=wrap;html=1;" vertex="1" parent="1">
          <mxGeometry x="612.79" y="340" width="80" height="80" as="geometry" />
        </mxCell>
        <mxCell id="xCzEfHTypVGqlruPkhLB-56" value="" style="rhombus;whiteSpace=wrap;html=1;" vertex="1" parent="1">
          <mxGeometry x="612.79" y="80" width="80" height="80" as="geometry" />
        </mxCell>
        <mxCell id="xCzEfHTypVGqlruPkhLB-57" value="" style="endArrow=open;html=1;rounded=0;strokeColor=#FF0000;endFill=0;startFill=0;exitX=0;exitY=0.5;exitDx=0;exitDy=0;entryX=0.5;entryY=1;entryDx=0;entryDy=0;edgeStyle=orthogonalEdgeStyle;startArrow=none;" edge="1" parent="1" source="xCzEfHTypVGqlruPkhLB-55" target="xCzEfHTypVGqlruPkhLB-50">
          <mxGeometry width="50" height="50" relative="1" as="geometry">
            <mxPoint x="460" y="610" as="sourcePoint" />
            <mxPoint x="380" y="350" as="targetPoint" />
          </mxGeometry>
        </mxCell>
        <mxCell id="xCzEfHTypVGqlruPkhLB-58" value="[dead]" style="text;html=1;align=center;verticalAlign=middle;resizable=0;points=[];autosize=1;strokeColor=none;fillColor=none;" vertex="1" parent="1">
          <mxGeometry x="475" y="350" width="60" height="30" as="geometry" />
        </mxCell>
        <mxCell id="xCzEfHTypVGqlruPkhLB-59" value="checkAlive" style="text;html=1;align=center;verticalAlign=middle;resizable=0;points=[];autosize=1;strokeColor=none;fillColor=none;" vertex="1" parent="1">
          <mxGeometry x="655" y="300" width="80" height="30" as="geometry" />
        </mxCell>
        <mxCell id="xCzEfHTypVGqlruPkhLB-60" value="" style="endArrow=none;html=1;rounded=0;strokeColor=#FF0000;endFill=0;exitX=0;exitY=0.5;exitDx=0;exitDy=0;entryX=0.683;entryY=1.033;entryDx=0;entryDy=0;entryPerimeter=0;edgeStyle=orthogonalEdgeStyle;startFill=0;" edge="1" parent="1" source="xCzEfHTypVGqlruPkhLB-41" target="xCzEfHTypVGqlruPkhLB-58">
          <mxGeometry width="50" height="50" relative="1" as="geometry">
            <mxPoint x="580" y="520" as="sourcePoint" />
            <mxPoint x="490" y="500" as="targetPoint" />
          </mxGeometry>
        </mxCell>
        <mxCell id="xCzEfHTypVGqlruPkhLB-63" value="Die" style="rounded=1;whiteSpace=wrap;html=1;arcSize=40;fontColor=#000000;fillColor=#ffffc0;strokeColor=#ff0000;" vertex="1" parent="1">
          <mxGeometry x="340" y="410" width="120" height="40" as="geometry" />
        </mxCell>
        <mxCell id="xCzEfHTypVGqlruPkhLB-64" value="" style="edgeStyle=elbowEdgeStyle;html=1;verticalAlign=bottom;endArrow=open;endSize=8;strokeColor=#ff0000;rounded=0;elbow=vertical;entryX=0.5;entryY=1;entryDx=0;entryDy=0;" edge="1" parent="1" target="xCzEfHTypVGqlruPkhLB-65">
          <mxGeometry relative="1" as="geometry">
            <mxPoint x="190" y="560" as="targetPoint" />
            <mxPoint x="592.79" y="610" as="sourcePoint" />
            <Array as="points">
              <mxPoint x="390" y="610" />
            </Array>
          </mxGeometry>
        </mxCell>
        <mxCell id="xCzEfHTypVGqlruPkhLB-65" value="" style="rhombus;whiteSpace=wrap;html=1;" vertex="1" parent="1">
          <mxGeometry x="210" y="460" width="80" height="80" as="geometry" />
        </mxCell>
        <mxCell id="xCzEfHTypVGqlruPkhLB-66" value="checkRemainingEjects" style="text;html=1;align=center;verticalAlign=middle;whiteSpace=wrap;rounded=0;" vertex="1" parent="1">
          <mxGeometry x="380" y="580" width="130" height="30" as="geometry" />
        </mxCell>
        <mxCell id="xCzEfHTypVGqlruPkhLB-67" value="[more than 0]" style="text;html=1;align=center;verticalAlign=middle;resizable=0;points=[];autosize=1;strokeColor=none;fillColor=none;" vertex="1" parent="1">
          <mxGeometry x="80" y="350" width="90" height="30" as="geometry" />
        </mxCell>
        <mxCell id="xCzEfHTypVGqlruPkhLB-68" value="" style="endArrow=open;html=1;rounded=0;strokeColor=#FF0000;exitX=0.5;exitY=0;exitDx=0;exitDy=0;edgeStyle=orthogonalEdgeStyle;entryX=0;entryY=0.5;entryDx=0;entryDy=0;endFill=0;" edge="1" parent="1" source="xCzEfHTypVGqlruPkhLB-65" target="xCzEfHTypVGqlruPkhLB-63">
          <mxGeometry width="50" height="50" relative="1" as="geometry">
            <mxPoint x="653" y="330" as="sourcePoint" />
            <mxPoint x="400" y="350" as="targetPoint" />
          </mxGeometry>
        </mxCell>
        <mxCell id="xCzEfHTypVGqlruPkhLB-69" value="[equals to 0]" style="text;html=1;align=center;verticalAlign=middle;resizable=0;points=[];autosize=1;strokeColor=none;fillColor=none;" vertex="1" parent="1">
          <mxGeometry x="250" y="400" width="90" height="30" as="geometry" />
        </mxCell>
        <mxCell id="xCzEfHTypVGqlruPkhLB-70" value="" style="endArrow=none;html=1;rounded=0;strokeColor=#FF0000;exitX=0.5;exitY=0;exitDx=0;exitDy=0;endFill=0;startFill=0;" edge="1" parent="1" source="xCzEfHTypVGqlruPkhLB-63">
          <mxGeometry width="50" height="50" relative="1" as="geometry">
            <mxPoint x="260" y="470" as="sourcePoint" />
            <mxPoint x="400" y="380" as="targetPoint" />
          </mxGeometry>
        </mxCell>
        <mxCell id="xCzEfHTypVGqlruPkhLB-73" value="endTurn" style="text;html=1;align=center;verticalAlign=middle;resizable=0;points=[];autosize=1;strokeColor=none;fillColor=none;" vertex="1" parent="1">
          <mxGeometry x="522.79" y="470" width="70" height="30" as="geometry" />
        </mxCell>
      </root>
    </mxGraphModel>
  </diagram>
  <diagram id="azvJsC2gUmmwAxwDt5KC" name="2 oldal">
    <mxGraphModel dx="1434" dy="774" grid="1" gridSize="10" guides="1" tooltips="1" connect="1" arrows="1" fold="1" page="1" pageScale="1" pageWidth="827" pageHeight="1169" math="0" shadow="0">
      <root>
        <mxCell id="0" />
        <mxCell id="1" parent="0" />
      </root>
    </mxGraphModel>
  </diagram>
</mxfile>
